<svg id="Component_291_1" data-name="Component 291 – 1" xmlns="http://www.w3.org/2000/svg" width="96.188" height="27" viewBox="0 0 96.188 27">
  <g id="noun-tooth-6879471" transform="translate(-8.812 -2.187)">
    <path id="Path_10402" data-name="Path 10402" d="M24.635,4.687c-2.689.024-3.205,1.421-5.274,1.421s-2.585-1.4-5.274-1.421C11.325,4.663,8.812,6.6,8.812,10.733S11.505,17.276,12,20.9c.668,4.93,1.4,7,2.737,7s1.217-8.824,4.626-8.824S22.646,27.9,23.986,27.9s2.069-2.069,2.737-7c.492-3.622,3.185-6.026,3.185-10.164S27.4,4.663,24.635,4.687ZM15.311,6.856a.4.4,0,0,1-.472.308,4.407,4.407,0,0,0-.808-.076c-1.789,0-2.817,1.329-2.817,3.645a7.226,7.226,0,0,0,.22,1.765.4.4,0,0,1-.288.484.427.427,0,0,1-.1.012.4.4,0,0,1-.388-.3,8.024,8.024,0,0,1-.244-1.961c0-2.741,1.389-4.446,3.622-4.446A5,5,0,0,1,15,6.38a.4.4,0,0,1,.312.476Z" transform="translate(0 0)" fill="#0273b1"/>
  </g>
  <text id="Dental_Clinic" data-name="Dental Clinic" transform="translate(25.188 25)" fill="#414141" font-size="11.4" font-family="ArialRoundedMTBold, Arial Rounded MT" letter-spacing="0.004em"><tspan x="0" y="0">Dental Clinic</tspan></text>
  <text id="DR._Teeth" data-name="DR. Teeth" transform="translate(24.188 14)" fill="#414141" font-size="15" font-family="ArialRoundedMTBold, Arial Rounded MT"><tspan x="0" y="0">DR. Teeth</tspan></text>
</svg>
